<svg xmlns="http://www.w3.org/2000/svg" width="42.624" height="28.032">
    <path fill="#B69E59" fill-rule="evenodd" d="M30.682-.001H1.318C.59-.001 0 .601 0 1.344v18.31c0 .743.59 1.345 1.318 1.345h29.364c.728 0 1.318-.602 1.318-1.345V1.344c0-.743-.59-1.345-1.318-1.345zM1.318 1.056h29.364c.123 0 .233.082.269.203L16 10.787 1.049 1.259a.281.281 0 0 1 .269-.203zm-.283 1.408l10.754 6.852L1.035 18.02V2.464zm29.93 17.183a.286.286 0 0 1-.283.288H1.318a.286.286 0 0 1-.283-.288v-.282l11.686-9.422 3.003 1.915a.51.51 0 0 0 .552 0l3.003-1.915 11.686 9.422v.282zm0-1.627L20.183 9.344l10.782-6.817V18.02z"/>
</svg>
