<svg xmlns="http://www.w3.org/2000/svg" width="22.656" height="22.656">
    <path ffill-rule="evenodd" d="M8.337 4.805c.727 0 1.401.182 2.022.545a4.062 4.062 0 0 1 1.477 1.477c.363.621.545 1.295.545 2.022 0 .727-.182 1.401-.545 2.022a4.07 4.07 0 0 1-1.477 1.477 3.937 3.937 0 0 1-2.022.545 3.937 3.937 0 0 1-2.022-.545 4.062 4.062 0 0 1-1.477-1.477 3.937 3.937 0 0 1-.545-2.022c0-.727.182-1.401.545-2.022A4.054 4.054 0 0 1 6.315 5.35a3.937 3.937 0 0 1 2.022-.545zm0 6.681c.727 0 1.348-.258 1.864-.773a2.543 2.543 0 0 0 .773-1.864c0-.727-.258-1.348-.773-1.864a2.54 2.54 0 0 0-1.864-.773 2.54 2.54 0 0 0-1.864.773A2.54 2.54 0 0 0 5.7 8.849c0 .727.257 1.348.773 1.864a2.543 2.543 0 0 0 1.864.773zm5.169-6.857a.915.915 0 0 0-.281-.668.91.91 0 0 0-.668-.281.91.91 0 0 0-.668.281.912.912 0 0 0-.282.668.91.91 0 0 0 .282.668.91.91 0 0 0 .668.282.854.854 0 0 0 .65-.282 1.09 1.09 0 0 0 .299-.668zm2.673.95c.023.656.035 1.746.035 3.27s-.018 2.62-.053 3.288c-.035.668-.135 1.248-.299 1.74a4.1 4.1 0 0 1-.967 1.53 4.091 4.091 0 0 1-1.53.967c-.492.164-1.072.264-1.74.299-.668.035-1.764.053-3.288.053-1.524 0-2.62-.018-3.288-.053-.668-.035-1.248-.147-1.741-.334a3.744 3.744 0 0 1-1.529-.932 4.1 4.1 0 0 1-.967-1.53c-.164-.492-.264-1.072-.299-1.74C.478 11.469.46 10.373.46 8.849c0-1.524.018-2.62.053-3.288.035-.668.135-1.248.299-1.741a4.088 4.088 0 0 1 .967-1.529 4.088 4.088 0 0 1 1.529-.967c.493-.164 1.073-.264 1.741-.299C5.717.99 6.813.972 8.337.972c1.524 0 2.62.018 3.288.053.668.035 1.248.135 1.74.299a4.091 4.091 0 0 1 1.53.967c.434.433.756.943.967 1.529.164.493.27 1.079.317 1.759zm-1.688 7.912c.14-.399.234-1.032.281-1.899.023-.516.035-1.243.035-2.18V8.286c0-.961-.012-1.688-.035-2.18-.047-.891-.141-1.524-.281-1.899a2.54 2.54 0 0 0-1.512-1.512c-.375-.141-1.008-.234-1.899-.281a50.449 50.449 0 0 0-2.18-.035H7.774c-.937 0-1.664.011-2.18.035-.867.047-1.5.14-1.899.281a2.535 2.535 0 0 0-1.512 1.512c-.141.375-.234 1.008-.281 1.899a50.449 50.449 0 0 0-.035 2.18v1.126c0 .937.011 1.664.035 2.18.047.867.14 1.5.281 1.899.305.726.809 1.23 1.512 1.512.399.14 1.032.234 1.899.281.516.023 1.243.035 2.18.035H8.9c.961 0 1.687-.012 2.18-.035.891-.047 1.524-.141 1.899-.281.726-.305 1.23-.809 1.512-1.512z"/>
</svg>