<svg xmlns="http://www.w3.org/2000/svg" width="17.376" height="48">
    <path fill="#B69E59" fill-rule="evenodd" d="M12.128 34.881c.401-.55.532-1.249.361-1.919l-2.011-7.863c-.246-.962-1.08-1.635-2.028-1.635H6.583c-.497 0-.912-.39-.965-.908a42.227 42.227 0 0 1-.217-4.307c0-1.459.073-2.908.217-4.307.053-.517.468-.908.965-.908H8.45c.948 0 1.782-.673 2.028-1.636l2.011-7.862a2.285 2.285 0 0 0-.361-1.919A2.05 2.05 0 0 0 10.461.75H7.647c-1.964 0-3.775 1.875-5.102 5.277C1.27 9.299.568 13.64.568 18.249c0 4.609.702 8.949 1.977 12.222.653 1.674 1.424 2.979 2.272 3.872.875.921 1.833 1.404 2.831 1.404h2.813c.659 0 1.266-.315 1.667-.866zm-2.5-9.541l2.011 7.863c.1.389.023.795-.21 1.115-.195.268-.475.44-.786.488L7.939 24.391h.511c.551 0 1.035.39 1.178.949zm1.801-23.16c.233.32.309.726.21 1.115l-2.011 7.862c-.143.56-.628.95-1.178.95h-.47l2.664-10.414a1.186 1.186 0 0 1 .785.487zM7.647 34.821c-1.56 0-3.123-1.714-4.287-4.702-1.233-3.163-1.912-7.379-1.912-11.87 0-4.492.679-8.706 1.912-11.87 1.164-2.988 2.727-4.702 4.287-4.702h2.089l-2.668 10.43h-.485c-.948 0-1.739.746-1.841 1.736a43.295 43.295 0 0 0-.221 4.406c0 1.492.074 2.975.221 4.407.102.989.893 1.735 1.841 1.735h.443l2.708 10.43H7.647z"/>
</svg>
