<svg xmlns="http://www.w3.org/2000/svg" width="31.968" height="46.656">
    <path fill="#B69E59" fill-rule="evenodd" d="M21.599 20.839l-9.602 14.164L2.38 20.82C-1.207 15.935-.686 7.874 3.509 3.59 5.776 1.274 8.791-.001 11.997-.001c3.206 0 6.22 1.275 8.487 3.591 4.196 4.285 4.716 12.345 1.115 17.249zm-2-16.345c-2.031-2.074-4.731-3.216-7.602-3.216-2.872 0-5.572 1.142-7.603 3.216C.608 8.361.141 15.641 3.396 20.072l8.601 12.685 8.587-12.666c3.268-4.45 2.802-11.73-.985-15.597zM12.107 16.62c-2.415 0-4.381-2.008-4.381-4.474 0-2.468 1.966-4.476 4.381-4.476 2.417 0 4.382 2.008 4.382 4.476 0 2.466-1.965 4.474-4.382 4.474zm0-7.672c-1.725 0-3.129 1.435-3.129 3.198 0 1.761 1.404 3.195 3.129 3.195 1.726 0 3.13-1.434 3.13-3.195 0-1.763-1.404-3.198-3.13-3.198z"/>
</svg>
