<?xml version="1.0" encoding="utf-8"?>
<!-- Generator: Adobe Illustrator 22.0.1, SVG Export Plug-In . SVG Version: 6.00 Build 0)  -->
<svg version="1.1" id="Слой_1" xmlns="http://www.w3.org/2000/svg" xmlns:xlink="http://www.w3.org/1999/xlink" x="0px" y="0px"
	 viewBox="0 0 56 41" style="enable-background:new 0 0 56 41;" xml:space="preserve">
<style type="text/css">
	.st0{fill:#B69E59;}
</style>
<g id="_">
	<path class="st0" d="M10.5,41c-3.7,0-6.4-1-8.1-3.1c-1.7-2.2-2.6-5-2.4-7.7c0-6,2.5-11.9,7.6-17.4C12.6,7.3,19,2.9,25.9,0.2L26.4,0
		l1.9,4.9l-0.4,0.2c-2,0.9-3.9,1.9-5.8,3.1c-1.8,1.1-3.6,2.3-5.2,3.7c-1.5,1.4-2.8,2.9-4,4.5c-1.1,1.6-1.9,3.3-2.6,5.1h2.5
		c3.3,0,5.9,0.7,7.6,2c1.7,1.3,2.7,3.4,2.6,5.6c-0.1,3.1-1.4,6.1-3.8,8.2C17,39.7,13.8,41,10.5,41z M25.8,1.3
		C19.2,4,13.2,8.2,8.3,13.5C3.5,18.8,1,24.4,1,30.2c-0.1,2.6,0.7,5.1,2.2,7.1c1.5,1.8,3.9,2.7,7.3,2.7c3,0,5.9-1.2,8.1-3.4
		c2.1-1.9,3.4-4.7,3.5-7.5c0.1-1.9-0.7-3.7-2.2-4.8c-1.5-1.2-3.9-1.8-7-1.8H9l0.2-0.6c0.6-2.1,1.6-4.2,2.9-6
		c1.2-1.7,2.6-3.3,4.1-4.7c1.6-1.5,3.4-2.7,5.3-3.8c1.7-1.1,3.6-2,5.5-2.9L25.8,1.3z M38.2,41c-3.7,0-6.4-1-8.1-3.1
		c-1.7-2.2-2.6-5-2.4-7.7c0-6,2.5-11.9,7.6-17.4c5.1-5.5,11.4-9.9,18.4-12.6L54.1,0L56,4.9l-0.4,0.2c-2,0.9-3.9,1.9-5.8,3.1
		c-1.8,1.1-3.6,2.3-5.2,3.7c-1.5,1.4-2.8,2.9-4,4.5c-1.1,1.6-1.9,3.3-2.6,5.1h2.5c3.3,0,5.9,0.7,7.6,2c1.7,1.3,2.7,3.4,2.6,5.6
		c-0.1,3.1-1.4,6.1-3.8,8.2C44.7,39.7,41.5,41,38.2,41z M53.5,1.3C46.9,4,40.8,8.2,36,13.5c-4.9,5.3-7.3,11-7.3,16.7
		c-0.1,2.6,0.7,5.1,2.2,7.1c1.5,1.8,4,2.7,7.3,2.7c3,0,5.9-1.2,8.1-3.4c2.1-1.9,3.4-4.7,3.5-7.5c0.1-1.9-0.7-3.7-2.2-4.8
		c-1.5-1.2-3.9-1.8-7-1.8h-3.8l0.2-0.6c0.6-2.2,1.6-4.2,2.9-6c1.2-1.7,2.6-3.3,4.1-4.7c1.6-1.5,3.4-2.7,5.3-3.8
		c1.8-1.1,3.6-2,5.5-2.9L53.5,1.3z"/>
</g>
</svg>
