<svg xmlns="http://www.w3.org/2000/svg" viewBox="0 0 23 30"><path fill-rule="evenodd" d="M12.1,15.222H10.531V3.023A3.009,3.009,0,0,0,7.537,0h-0.8A3.009,3.009,0,0,0,3.742,3.023v12.2H2.176A2.191,2.191,0,0,0,0,17.422v3.64a1.254,1.254,0,0,0,.012.161v6.162a2.581,2.581,0,0,0,2.564,2.591H11.7a2.581,2.581,0,0,0,2.564-2.591V21.223a1.266,1.266,0,0,0,.012-0.161v-3.64A2.191,2.191,0,0,0,12.1,15.222Zm1.008,5.84a0.03,0.03,0,0,1-.03.031H1.2a0.03,0.03,0,0,1-.03-0.031v-3.64A1.015,1.015,0,0,1,2.176,16.4H12.1A1.015,1.015,0,0,1,13.1,17.422v3.64ZM18.282,3.47a0.65,0.65,0,0,1,.557-0.976h2.7a0.65,0.65,0,0,1,.558.976L20.961,5.459a0.875,0.875,0,0,1-.187.228v8.275H19.606V5.687a0.9,0.9,0,0,1-.187-0.228ZM23,16.265v11.3A2.425,2.425,0,0,1,20.591,30h-0.8a2.425,2.425,0,0,1-2.409-2.434v-11.3a1.117,1.117,0,0,1,1.11-1.122h3.4A1.117,1.117,0,0,1,23,16.265Z"/></svg>
