<svg xmlns="http://www.w3.org/2000/svg" width="28" height="25" viewBox="0 0 28 25">
  <path fill-rule="evenodd" class="cls-1" d="M11.9,23.278a4.032,4.032,0,0,0,.213-4.205,3.741,3.741,0,0,0-1.134-1.255c-0.07-.049-0.141-0.094-0.213-0.137l1.877-3.026a2.2,2.2,0,0,0,1.565-.274,2.3,2.3,0,0,0,.417-0.321,3.269,3.269,0,0,0,3.336.714l9.58-3.294a0.4,0.4,0,0,0-.141-0.79l-8.133.639-4.084.2a2.05,2.05,0,0,0-.252-0.469l6.87-10.4A0.4,0.4,0,0,0,21.21.142L13.661,7.075a3.535,3.535,0,0,0-1.1,3.159,2.234,2.234,0,0,0-.537.231,2.329,2.329,0,0,0-1.012,1.264L7.536,11.9A3.9,3.9,0,0,0,7.044,10,3.736,3.736,0,0,0,4,8.073,4,4,0,0,0-.162,11.767a3.922,3.922,0,0,0,.48,2.238,3.736,3.736,0,0,0,3.045,1.922,3.862,3.862,0,0,0,2.811-.985,4.041,4.041,0,0,0,.988-1.327l3.93-.191c0.025,0.054.05,0.108,0.079,0.16s0.062,0.1.094,0.15L9.139,17.159a3.821,3.821,0,0,0-1.038.062,3.944,3.944,0,0,0-2.5,1.664,4.033,4.033,0,0,0-.214,4.207,3.754,3.754,0,0,0,1.134,1.255A3.852,3.852,0,0,0,11.9,23.278ZM3.5,14.231a2.123,2.123,0,0,1-1.73-1.093,2.225,2.225,0,0,1-.272-1.27,2.27,2.27,0,0,1,2.364-2.1,2.121,2.121,0,0,1,1.73,1.093,2.224,2.224,0,0,1,.272,1.27A2.3,2.3,0,0,1,5.1,13.672,2.194,2.194,0,0,1,3.5,14.231Zm9.891-1.312a0.552,0.552,0,0,1-.77-0.2,0.592,0.592,0,0,1,.216-0.79,0.552,0.552,0,0,1,.77.2A0.592,0.592,0,0,1,13.391,12.919Zm-5.9,10.016a2.114,2.114,0,0,1-.644-0.711,2.289,2.289,0,0,1,.121-2.389,2.242,2.242,0,0,1,1.418-.946A2.128,2.128,0,0,1,10.66,19.94a2.291,2.291,0,0,1-.121,2.39A2.187,2.187,0,0,1,7.487,22.935Z"/>
</svg>
