<svg xmlns="http://www.w3.org/2000/svg" viewBox="0 0 15 30"><path fill-rule="evenodd" d="M0,27.567L0.764,12.254a3.262,3.262,0,0,1,2.8-3.169V7.2A3.031,3.031,0,0,1,6.05,4.132V2.67A1.739,1.739,0,0,1,4.961,1.144H2.8A0.552,0.552,0,0,1,2.271.572,0.552,0.552,0,0,1,2.8,0h8.567L13.78,1.383A0.6,0.6,0,0,1,14,2.157a0.525,0.525,0,0,1-.468.3,0.5,0.5,0,0,1-.247-0.067L11.1,1.144H8.2A1.739,1.739,0,0,1,7.108,2.67V4.132A3.031,3.031,0,0,1,9.592,7.2V9.085a3.262,3.262,0,0,1,2.8,3.169l0.762,15.313a2.576,2.576,0,0,1-.006.318,1.714,1.714,0,0,1-.389,1.223,1.515,1.515,0,0,1-.252.237A2.031,2.031,0,0,1,11.023,30H2.135A2.033,2.033,0,0,1,.65,29.346,1.554,1.554,0,0,1,.4,29.108a1.715,1.715,0,0,1-.389-1.223A2.54,2.54,0,0,1,0,27.567Zm11.557-10.8-0.222-4.455a2.133,2.133,0,0,0-2.053-2.1H3.873a2.133,2.133,0,0,0-2.053,2.1L1.6,16.771h9.96Zm1.973-8.957A1.432,1.432,0,0,0,14.8,7.022a1.678,1.678,0,0,0,0-1.583L13.99,3.922a0.51,0.51,0,0,0-.916,0l-0.81,1.517a1.678,1.678,0,0,0,0,1.583A1.432,1.432,0,0,0,13.532,7.813Z"/></svg>
